{"title":"Highway (2014) - Patakha Guddi Song - A.R Rahman - Ali, Randeep ","uid":9454475,"size":57725896,"categoryP":"video","categoryS":"music_videos","magnet":"?xt=urn:btih:7eae720e0bd3c1a253a37ec7b1cc0e0c5fcb39ea&amp;dn=Highway+%282014%29+-+Patakha+Guddi+Song+-+A.R+Rahman+-+Ali%2C+Randeep+&amp;tr=udp%3A%2F%2Ftracker.openbittorrent.com%3A80&amp;tr=udp%3A%2F%2Fopen.demonii.com%3A1337&amp;tr=udp%3A%2F%2Ftracker.coppersurfer.tk%3A6969&amp;tr=udp%3A%2F%2Fexodus.desync.com%3A6969","seeders":2,"leechers":0,"uploader":"Palash995","files":1,"time":1389237006,"description":"[center][b]Highway (2014) - Patakha Guddi Song - A.R Rahman - Ali, Randeep HD 1080p\n\n[img]http://i1.ytimg.com/vi/LijcpDrSNVI/mqdefault.jpg[/img]\n\n\nPresenting Patakha Guddi song from Highway in astonishing voice of Nooran Sisters (Jyoti &amp; Sultana), the music is composed by A.R Rahman while lyrics are penned by Irshad Kamil.\n\nSong: Pataka Guddi\nSinger: Nooran Sisters\nMusic: A.R Rahman\nLyrics: Irshad Kamil\nMovie: Highway\nDirected By: Imtiaz Ali\nStarring: Alia Bhatt, Randeep Hooda and Others\nMusic Label: T-Series\n\nThe film releases in cinemas on 21st February 2014\n\nScreenshots:-\n\n\n\n\n\nMedia Info:-\n\nGeneral\nComplete name                            : Highway (2014) - Patakha Guddi Song - A.R Rahman - Ali, Randeep HD 1080p {DAKU RG} {GreatPalash}.mp4\nFormat                                   : MPEG-4\nFormat profile                           : Base Media\nCodec ID                                 : isom\nFile size                                : 55.1 MiB\nDuration                                 : 2mn 0s\nOverall bit rate mode                    : Variable\nOverall bit rate                         : 3 848 Kbps\nWriting application                      : Lavf53.31.100\n\nVideo\nID                                       : 1\nFormat                                   : AVC\nFormat/Info                              : Advanced Video Codec\nFormat profile                           : &lt;a class=&quot;__cf_email__&quot; href=&quot;/cdn-cgi/l/email-protection&quot; data-cfemail=&quot;773f1e101f373b435946&quot;&gt;[email&amp;#160;protected]&lt;/a&gt;&lt;script cf-hash='f9e31' type=&quot;text/javascript&quot;&gt;\n/* &lt;![CDATA[ */!function(){try{var t=&quot;currentScript&quot;in document?document.currentScript:function(){for(var t=document.getElementsByTagName(&quot;script&quot;),e=t.length;e--;)if(t[e].getAttribute(&quot;cf-hash&quot;))return t[e]}();if(t&amp;&amp;t.previousSibling){var e,r,n,i,c=t.previousSibling,a=c.getAttribute(&quot;data-cfemail&quot;);if(a){for(e=&quot;&quot;,r=parseInt(a.substr(0,2),16),n=2;a.length-n;n+=2)i=parseInt(a.substr(n,2),16)^r,e+=String.fromCharCode(i);e=document.createTextNode(e),c.parentNode.replaceChild(e,c)}}}catch(u){}}();/* ]]&gt; */&lt;/script&gt;\nFormat settings, CABAC                   : Yes\nFormat settings, ReFrames                : 3 frames\nCodec ID                                 : avc1\nCodec ID/Info                            : Advanced Video Coding\nDuration                                 : 2mn 0s\nBit rate mode                            : Variable\nBit rate                                 : 3 716 Kbps\nMaximum bit rate                         : 19.2 Mbps\nWidth                                    : 1 920 pixels\nHeight                                   : 1 080 pixels\nDisplay aspect ratio                     : 16:9\nFrame rate mode                          : Constant\nFrame rate                               : 25.000 fps\nStandard                                 : PAL\nColor space                              : YUV\nChroma subsampling                       : 4:2:0\nBit depth                                : 8 bits\nScan type                                : Progressive\nBits/(Pixel*Frame)                       : 0.072\nStream size                              : 53.2 MiB (97%)\nColor primaries                          : BT.709\nTransfer characteristics                 : BT.709\nMatrix coefficients                      : BT.709\n\nAudio\nID                                       : 2\nFormat                                   : AAC\nFormat/Info                              : Advanced Audio Codec\nFormat profile                           : LC\nCodec ID                                 : 40\nDuration                                 : 2mn 0s\nBit rate mode                            : Constant\nBit rate                                 : 126 Kbps\nChannel(s)                               : 2 channels\nChannel positions                        : Front: L R\nSampling rate                            : 44.1 KHz\nCompression mode                         : Lossy\nStream size                              : 1.80 MiB (3%)\n\n[IMG]http://imageshack.us/a/img89/4822/zka.gif[/IMG]\n\n[IMG]http://imageshack.us/a/img200/185/tj8.gif[/IMG]\n\n[IMG]http://imageshack.us/a/img593/9603/ua8.gif[/IMG]\n\n[IMG]http://imageshack.us/a/img707/5608/ysmp.png[/IMG][/b][/center]","torrent":{"xt":"urn:btih:7eae720e0bd3c1a253a37ec7b1cc0e0c5fcb39ea","amp;dn":"Highway+%282014%29+-+Patakha+Guddi+Song+-+A.R+Rahman+-+Ali%2C+Randeep+","amp;tr":["udp%3A%2F%2Ftracker.openbittorrent.com%3A80","udp%3A%2F%2Fopen.demonii.com%3A1337","udp%3A%2F%2Ftracker.coppersurfer.tk%3A6969","udp%3A%2F%2Fexodus.desync.com%3A6969"],"infoHash":"7eae720e0bd3c1a253a37ec7b1cc0e0c5fcb39ea","infoHashBuffer":{"type":"Buffer","data":[126,174,114,14,11,211,193,162,83,163,126,199,177,204,14,12,95,203,57,234]},"announce":[],"urlList":[]}}